<?xml version="1.0" encoding="UTF-8" standalone="no"?>
<!-- Created with Inkscape (http://www.inkscape.org/) -->

<svg
   width="1807.0909"
   height="220.036"
   viewBox="0 0 478.12614 58.217856"
   version="1.1"
   id="svg1"
   sodipodi:docname="logo-guido-rojo-footer.svg"
   inkscape:version="1.4.2 (f4327f4, 2025-05-13)"
   xmlns:inkscape="http://www.inkscape.org/namespaces/inkscape"
   xmlns:sodipodi="http://sodipodi.sourceforge.net/DTD/sodipodi-0.dtd"
   xmlns="http://www.w3.org/2000/svg"
   xmlns:svg="http://www.w3.org/2000/svg">
  <sodipodi:namedview
     id="namedview1"
     pagecolor="#ffffff"
     bordercolor="#999999"
     borderopacity="1"
     inkscape:showpageshadow="2"
     inkscape:pageopacity="0"
     inkscape:pagecheckerboard="0"
     inkscape:deskcolor="#d1d1d1"
     inkscape:zoom="0.28486321"
     inkscape:cx="-10.53137"
     inkscape:cy="43.88071"
     inkscape:window-width="1600"
     inkscape:window-height="829"
     inkscape:window-x="-8"
     inkscape:window-y="-8"
     inkscape:window-maximized="1"
     inkscape:current-layer="svg1" />
  <defs
     id="defs1" />
  <path
     id="path16-1-8"
     style="font-size:34.9754px;line-height:1.25;font-family:'Univers 67 Condensed';-inkscape-font-specification:'Univers 67 Condensed, ';text-align:center;letter-spacing:2.04477px;word-spacing:0px;text-anchor:middle;fill:#b01c1c;fill-opacity:1;stroke:#b01c1c;stroke-width:0.983245;stroke-opacity:1"
     d="M 48.131608,0.49147885 V 7.1598088 h 6.853329 V 0.49147885 Z m 10.928015,0 V 7.1598088 h 6.853845 V 0.49147885 Z M 16.297893,11.667034 c -15.2503634,0 -15.80627049,11.42207 -15.80627049,22.65908 0,16.91726 1.79032909,23.40012 17.47283549,23.40012 3.704467,0 10.064184,-0.98763 12.595613,-1.48156 V 33.647084 H 16.17387 v 6.85333 h 5.063256 v 9.87847 c -1.420001,0.49393 -3.087153,0.86454 -4.630725,0.86454 -5.309647,0 -6.6683264,-2.46963 -6.6683264,-16.42328 0,-8.64387 2.6e-5,-16.4853 5.8037804,-16.4853 4.939288,0 5.618374,3.64267 5.556766,7.77937 h 9.26145 c 0.555714,-9.32301 -5.124494,-14.44718 -14.262178,-14.44718 z m 144.343127,0 c -15.37376,0 -15.37374,11.23692 -15.37374,23.0296 0,11.6692 -2e-5,23.0296 15.37374,23.0296 15.37376,0 15.37374,-11.3604 15.37374,-23.0296 0,-11.79268 2e-5,-23.0296 -15.37374,-23.0296 z m 46.79146,0 c -15.37376,0 -15.37374,11.23692 -15.37374,23.0296 0,11.6692 -2e-5,23.0296 15.37374,23.0296 8.70554,0 13.45964,-3.82809 13.45964,-15.74426 h -9.19944 c -0.12357,3.51929 0.0618,9.07645 -4.2602,9.07645 -5.24804,0 -5.92729,-4.93955 -5.92729,-16.36179 0,-11.42222 0.67925,-16.36179 5.92729,-16.36179 2.77839,0 3.82819,2.22267 3.82819,8.14989 h 9.13742 c 0.37036,-9.56999 -3.45739,-14.8177 -12.96561,-14.8177 z m 101.97103,0.37052 v 31.6115 c 0,8.39688 4.93911,13.70666 15.18822,13.70666 11.36054,0 15.12673,-7.03855 15.12673,-13.70666 v -31.6115 h -9.32295 v 30.99397 c 0,4.93934 -1.85176,7.65638 -5.92677,7.65638 -3.39589,0 -5.74228,-2.16136 -5.74228,-7.65638 v -30.99397 z m -267.569708,0.37 v 31.61203 c 0,8.39687 4.939624,13.70665 15.188736,13.70665 11.360541,0 15.126725,-7.03855 15.126725,-13.70665 v -31.61203 h -9.322945 v 30.99449 c 0,4.93934 -1.852284,7.65638 -5.927286,7.65638 -3.395893,0 -5.742285,-2.16136 -5.742285,-7.65638 v -30.99449 z m 41.551985,0 v 44.57764 h 9.322945 v -44.57764 z m 20.559983,0 v 44.57764 h 15.18874 c 15.92929,0 14.87971,-15.68223 14.87971,-22.53557 0,-13.8919 -2.28436,-22.04207 -14.50919,-22.04207 z m 124.65492,0 12.3486,44.57764 h 12.28659 l 12.10159,-44.57764 h -9.81697 l -2.46962,9.87898 h -12.71912 l -2.53111,-9.87898 z m 44.44587,0 v 44.57764 h 9.32294 v -18.15186 h 6.91483 c 10.9284,0 12.41009,-8.0263 12.41009,-13.08913 0,-8.14991 -3.33369,-13.33665 -11.85405,-13.33665 z m 75.24502,0 v 6.85333 h 17.84335 l -18.70738,29.57442 v 8.14989 h 28.15383 v -6.85333 h -19.20141 l 18.7694,-29.63591 v -8.0884 z m 35.86344,0 v 6.85333 h 17.84336 l -18.70791,29.57442 v 8.14989 h 28.15436 v -6.85333 H 392.2429 l 18.7694,-29.63591 v -8.0884 z m 34.99838,0 v 44.57764 h 9.32295 v -44.57764 z m 38.29017,1.93167 c -11.29743,0 -20.35741,9.00519 -20.35741,20.30263 0,11.29744 9.05998,20.41219 20.35741,20.41219 11.24287,0 20.24786,-9.11475 20.24786,-20.41219 0,-11.29744 -9.00499,-20.30263 -20.24786,-20.30263 z m 0,3.82043 c 9.00521,0 16.42794,7.36784 16.42794,16.4822 0,9.11436 -7.42273,16.59175 -16.42794,16.59175 -9.16893,0 -16.53698,-7.47739 -16.53698,-16.59175 0,-9.11436 7.36805,-16.4822 16.53698,-16.4822 z m -296.80255,0.17519 c 5.24804,0 5.92677,4.93957 5.92677,16.36179 0,11.42224 -0.67873,16.36179 -5.92677,16.36179 -5.24804,0 -5.92729,-4.93955 -5.92729,-16.36179 0,-11.42222 0.67925,-16.36179 5.92729,-16.36179 z m -47.3723,0.92604 h 4.81624 c 6.48286,0 6.48281,7.2241 6.48281,15.43575 0,11.17527 -1.11164,15.43523 -6.79183,15.43523 h -4.50722 z m 169.10078,0 h 4.69222 c 4.19839,0 5.18625,3.08757 5.18625,6.73034 0,2.96361 -1.91383,5.98878 -4.69222,5.98878 h -5.18625 z m 167.16034,3.48351 v 23.63163 h 5.34851 v -9.76943 h 1.36478 c 4.14785,0 3.71088,2.40179 3.71088,5.18521 0,1.58274 2e-5,3.16522 0.70952,4.58422 h 5.23947 c -0.49119,-0.98239 -0.60048,-5.4032 -0.60048,-6.93136 0,-4.25701 -3.49288,-4.52964 -4.63899,-4.58422 v -0.10903 c 3.49293,-0.54577 4.74854,-2.78345 4.74854,-5.78518 0,-4.0387 -2.3471,-6.22184 -6.00376,-6.22184 z m 5.34851,3.92947 h 2.4014 c 1.69189,0 2.78381,0.87327 2.78381,3.11092 0,1.52816 -0.6553,3.49281 -2.78381,3.49281 h -2.4014 z m -212.69451,2.466 h 8.89093 l -4.50722,19.26343 h -0.1235 z" />
</svg>
