<?xml version="1.0" encoding="UTF-8" standalone="no"?>
<!-- Created with Inkscape (http://www.inkscape.org/) -->

<svg
   width="1933.613"
   height="220.036"
   viewBox="0 0 511.60178 58.217856"
   version="1.1"
   id="svg1"
   sodipodi:docname="logo-guido-rojo-footer.svg"
   inkscape:version="1.4.2 (f4327f4, 2025-05-13)"
   xmlns:inkscape="http://www.inkscape.org/namespaces/inkscape"
   xmlns:sodipodi="http://sodipodi.sourceforge.net/DTD/sodipodi-0.dtd"
   xmlns="http://www.w3.org/2000/svg"
   xmlns:svg="http://www.w3.org/2000/svg">
  <sodipodi:namedview
     id="namedview1"
     pagecolor="#ffffff"
     bordercolor="#999999"
     borderopacity="1"
     inkscape:showpageshadow="2"
     inkscape:pageopacity="0"
     inkscape:pagecheckerboard="0"
     inkscape:deskcolor="#d1d1d1"
     inkscape:zoom="0.20142871"
     inkscape:cx="1064.8929"
     inkscape:cy="459.21955"
     inkscape:window-width="1600"
     inkscape:window-height="829"
     inkscape:window-x="-8"
     inkscape:window-y="-8"
     inkscape:window-maximized="1"
     inkscape:current-layer="svg1" />
  <defs
     id="defs1" />
  <path
     id="path229-6"
     style="font-weight:bold;font-stretch:condensed;font-size:58.0982px;line-height:79.1378px;font-family:'Helvetica Neue LT Std';-inkscape-font-specification:'Helvetica Neue LT Std Bold Condensed';letter-spacing:5.28166px;word-spacing:0px;fill:#b01c1c;fill-opacity:1;stroke-width:12.0257;stroke-linecap:square"
     d="m 50.336582,0.0255244 v 7.654936 h 7.265921 v -7.654936 z m 11.158617,0 v 7.654936 h 7.265589 V 0.0255244 Z M 15.569538,10.080954 C 3.6326424,10.080954 0,18.060521 0,33.630391 c 0,16.023905 2.2701215,24.587465 13.753009,24.587465 4.346621,0 7.525311,-1.556946 9.731131,-5.189892 h 0.129985 v 4.281628 h 6.876546 V 32.332641 H 15.375169 v 6.8771 h 6.162789 v 4.735746 c 0,4.995246 -3.567539,7.395242 -5.773221,7.395242 -5.384621,0 -6.4230916,-7.006089 -6.4230916,-18.164484 0,-11.547659 1.8166396,-16.218772 6.3578776,-16.218772 3.762738,0 5.319656,4.346509 5.319656,7.784838 h 8.952824 c 0,-9.406832 -4.152196,-14.661357 -14.402327,-14.661357 z m 154.769632,0 c -14.01284,0 -15.76462,9.990382 -15.76462,24.068105 0,14.077834 1.75178,24.068797 15.76462,24.068797 14.01285,0 15.76419,-9.990963 15.76419,-24.068797 0,-14.077723 -1.75134,-24.068105 -15.76419,-24.068105 z m 49.51149,0 c -14.01285,0 -15.7646,9.990382 -15.7646,24.068105 0,14.077834 1.75175,24.068797 15.7646,24.068797 12.2613,0 14.72607,-8.62858 14.72607,-18.619183 h -9.34176 c 0,9.990603 -2.46496,11.742056 -5.83843,11.742056 -4.02221,0 -5.96884,-2.529622 -5.96884,-16.542463 0,-13.104577 1.10313,-17.840793 5.83896,-17.840793 4.21675,0 5.57894,2.919549 5.57894,9.666497 h 9.34209 c 0,-6.746948 -0.97282,-16.543016 -14.33703,-16.543016 z m 267.68234,0 c -13.29934,0 -24.06814,10.76891 -24.06814,24.068105 0,13.299306 10.7688,24.068797 24.06814,24.068797 13.29919,0 24.06879,-10.769491 24.06879,-24.068797 0,-13.299195 -10.7696,-24.068105 -24.06879,-24.068105 z M 44.756541,10.989218 v 32.307643 c 0,12.391014 7.201509,14.920995 14.791812,14.920995 7.590303,0 14.791674,-3.113836 14.791674,-14.920995 V 10.989218 h -9.341618 v 32.307643 c 0,4.606093 -1.103463,8.044421 -5.450056,8.044421 -4.346509,0 -5.449392,-3.438328 -5.449392,-8.044421 V 10.989218 Z m 43.316417,0 v 46.320374 h 9.341617 V 10.989218 Z m 22.432232,0 v 46.320374 h 14.72651 c 12.39104,0 15.89392,-7.395906 15.89392,-23.809076 0,-13.623577 -2.33511,-22.511298 -15.30993,-22.511298 z m 134.07431,0 12.26142,46.320374 h 11.54766 l 12.26141,-46.320374 h -9.73113 l -2.14124,9.795736 h -12.32619 l -2.1408,-9.795736 z m 46.68909,0 v 46.320374 h 9.34167 V 38.820255 h 4.99544 c 8.82287,0 14.72652,-4.346703 14.72652,-13.94818 0,-6.941539 -3.24393,-13.882857 -12.71554,-13.882857 z m 39.49352,0 v 32.307643 c 0,12.391014 7.20096,14.920995 14.79115,14.920995 7.59031,0 14.79123,-3.113836 14.79123,-14.920995 V 10.989218 h -9.34161 v 32.307643 c 0,4.606093 -1.10314,8.043868 -5.44962,8.043868 -4.34651,0 -5.4495,-3.437775 -5.4495,-8.043868 V 10.989218 Z m 41.4024,0 v 7.654936 h 15.89448 l -17.06191,31.853525 v 6.811913 h 28.0901 v -7.655545 h -17.58047 l 17.32144,-31.593858 v -7.070971 z m 38.33434,0 v 7.654936 h 15.89425 l -17.06179,31.853525 v 6.811913 h 28.09023 v -7.655545 h -17.5806 l 17.32151,-31.593858 v -7.070971 z m 36.47604,0 v 46.320374 h 9.34228 V 10.989218 Z m -276.63572,5.968255 c 5.51428,0 6.42243,4.800655 6.42243,17.191586 0,12.455924 -0.90815,17.19167 -6.42243,17.19167 -5.51435,0 -6.42242,-4.735746 -6.42242,-17.19167 0,-12.390931 0.90807,-17.191586 6.42242,-17.191586 z m 317.19383,0 c 9.66625,0 16.80273,7.784838 16.80273,17.191586 0,9.406832 -7.13648,17.19167 -16.80273,17.19167 -9.66636,0 -16.80221,-7.784838 -16.80221,-17.19167 0,-9.406748 7.13585,-17.191586 16.80221,-17.191586 z m -367.68559,0.908236 h 3.95733 c 7.13619,0 7.97924,5.384787 7.97924,15.894418 0,12.585688 -1.29742,16.672338 -7.78484,16.672338 h -4.15173 z m 180.76285,0 h 3.89267 c 4.671,0 6.48709,2.595002 6.48709,7.136213 0,4.735856 -2.53018,6.941787 -6.22803,6.941787 h -4.15173 z m 177.51588,3.308758 v 25.949848 h 5.70922 v -10.44486 h 2.07562 l 6.09871,10.44486 h 6.22789 L 491.8146,36.419734 c 3.56812,-0.454146 6.42298,-2.919107 6.42298,-7.200845 0,-5.124983 -3.24393,-8.044422 -9.99083,-8.044422 z m 5.70922,4.541211 h 3.76285 c 2.1408,0 4.93014,0.324521 4.93014,3.178967 0,2.789564 -1.81597,3.243461 -4.34615,3.243461 h -4.34684 z m -225.76188,2.724821 h 9.08267 l -4.4768,20.824644 h -0.12971 z" />
</svg>
