<?xml version="1.0" encoding="UTF-8" standalone="no"?>
<!-- Created with Inkscape (http://www.inkscape.org/) -->

<svg
   width="476.6496mm"
   height="62.948788mm"
   viewBox="0 0 476.64959 62.948787"
   version="1.1"
   id="svg1"
   sodipodi:docname="logo-guido-negro.svg"
   inkscape:version="1.4.2 (f4327f4, 2025-05-13)"
   xmlns:inkscape="http://www.inkscape.org/namespaces/inkscape"
   xmlns:sodipodi="http://sodipodi.sourceforge.net/DTD/sodipodi-0.dtd"
   xmlns="http://www.w3.org/2000/svg"
   xmlns:svg="http://www.w3.org/2000/svg">
  <sodipodi:namedview
     id="namedview1"
     pagecolor="#ffffff"
     bordercolor="#999999"
     borderopacity="1"
     inkscape:showpageshadow="2"
     inkscape:pageopacity="0"
     inkscape:pagecheckerboard="0"
     inkscape:deskcolor="#d1d1d1"
     inkscape:document-units="mm"
     inkscape:zoom="0.41021137"
     inkscape:cx="1131.1242"
     inkscape:cy="74.351913"
     inkscape:window-width="1600"
     inkscape:window-height="829"
     inkscape:window-x="-8"
     inkscape:window-y="-8"
     inkscape:window-maximized="1"
     inkscape:current-layer="svg1" />
  <defs
     id="defs1" />
  <path
     id="path25"
     style="font-size:66.7592px;line-height:1.25;font-family:'Univers 67 Condensed';-inkscape-font-specification:'Univers 67 Condensed, ';text-align:center;letter-spacing:3.90295px;word-spacing:0px;text-anchor:middle;fill:#1a1a1a;stroke:#1a1a1a;stroke-width:1.06315"
     d="M 52.300684 0.53175049 L 52.300684 7.7416463 L 59.711084 7.7416463 L 59.711084 0.53175049 L 52.300684 0.53175049 z M 64.117017 0.53175049 L 64.117017 7.7416463 L 71.527417 7.7416463 L 71.527417 0.53175049 L 64.117017 0.53175049 z M 17.62218 12.614734 C 1.1326584 12.614734 0.53175049 24.96539 0.53175049 37.115564 C 0.53175049 55.407585 2.4678182 62.417379 19.424654 62.417379 C 23.430206 62.417379 30.306334 61.348966 33.043461 60.814893 L 33.043461 36.381242 L 17.488338 36.381242 L 17.488338 43.791642 L 22.962423 43.791642 L 22.962423 54.473161 C 21.426961 55.007234 19.624473 55.407471 17.955493 55.407471 C 12.214202 55.407471 10.745597 52.736961 10.745597 37.649382 C 10.745597 28.303094 10.745818 19.825146 17.021183 19.825146 C 22.361919 19.825146 23.096361 23.763652 23.029602 28.236519 L 33.043461 28.236519 C 33.644294 18.155879 27.502542 12.614734 17.62218 12.614734 z M 173.69534 12.614734 C 157.0723 12.614734 157.07207 24.765049 157.07207 37.516056 C 157.07207 50.133545 157.0723 62.417379 173.69534 62.417379 C 190.31838 62.417379 190.3181 50.133545 190.3181 37.516056 C 190.3181 24.765049 190.31838 12.614734 173.69534 12.614734 z M 237.11163 12.614734 C 220.48859 12.614734 220.48835 24.765049 220.48835 37.516056 C 220.48835 50.133545 220.48859 62.417379 237.11163 62.417379 C 246.52468 62.417379 251.66474 58.278137 251.66474 45.393612 L 241.71806 45.393612 C 241.58455 49.198887 241.78476 55.207483 237.11163 55.207483 C 231.4371 55.207483 230.70271 49.866509 230.70271 37.516056 C 230.70271 25.165604 231.4371 19.825146 237.11163 19.825146 C 240.11579 19.825146 241.25039 22.228129 241.25039 28.637012 L 251.13092 28.637012 C 251.53148 18.289336 247.39255 12.614734 237.11163 12.614734 z M 45.49128 13.015743 L 45.49128 47.196086 C 45.49128 56.275337 50.832023 62.016886 61.91405 62.016886 C 74.197743 62.016886 78.270158 54.40608 78.270158 47.196086 L 78.270158 13.015743 L 68.189636 13.015743 L 68.189636 46.528426 C 68.189636 51.869162 66.186832 54.806991 61.780725 54.806991 C 58.108969 54.806991 55.572319 52.469995 55.572319 46.528426 L 55.572319 13.015743 L 45.49128 13.015743 z M 346.57936 13.015743 L 346.57936 47.196086 C 346.57936 56.275337 351.9201 62.016886 363.00213 62.016886 C 375.28582 62.016886 379.35824 54.40608 379.35824 47.196086 L 379.35824 13.015743 L 369.2772 13.015743 L 369.2772 46.528426 C 369.2772 51.869162 367.2744 54.806991 362.86829 54.806991 C 359.19653 54.806991 356.65988 52.469995 356.65988 46.528426 L 356.65988 13.015743 L 346.57936 13.015743 z M 90.384664 13.416235 L 90.384664 61.616394 L 100.46519 61.616394 L 100.46519 13.416235 L 90.384664 13.416235 z M 113.04685 13.416235 L 113.04685 61.616394 L 129.46962 61.616394 C 146.69349 61.616394 145.55856 44.65916 145.55856 37.248889 C 145.55856 22.228068 143.08843 13.416235 129.87011 13.416235 L 113.04685 13.416235 z M 257.91914 13.416235 L 271.27078 61.616394 L 284.55576 61.616394 L 297.64075 13.416235 L 287.02589 13.416235 L 284.35577 24.097754 L 270.60312 24.097754 L 267.86634 13.416235 L 257.91914 13.416235 z M 305.82526 13.416235 L 305.82526 61.616394 L 315.90578 61.616394 L 315.90578 41.989168 L 323.38285 41.989168 C 335.19923 41.989168 336.80166 33.310282 336.80166 27.836027 C 336.80166 19.023813 333.19661 13.416235 323.98384 13.416235 L 305.82526 13.416235 z M 389.66976 13.416235 L 389.66976 20.826119 L 408.96315 20.826119 L 388.73545 52.804012 L 388.73545 61.616394 L 419.17751 61.616394 L 419.17751 54.205994 L 398.41547 54.205994 L 418.71036 22.161438 L 418.71036 13.416235 L 389.66976 13.416235 z M 426.95223 13.416235 L 426.95223 20.826119 L 446.24563 20.826119 L 426.01792 52.804012 L 426.01792 61.616394 L 456.45999 61.616394 L 456.45999 54.205994 L 435.69795 54.205994 L 455.99284 22.161438 L 455.99284 13.416235 L 426.95223 13.416235 z M 466.0377 13.416235 L 466.0377 61.616394 L 476.11823 61.616394 L 476.11823 13.416235 L 466.0377 13.416235 z M 173.69534 19.825146 C 179.36987 19.825146 180.10374 25.165604 180.10374 37.516056 C 180.10374 49.866509 179.36987 55.207483 173.69534 55.207483 C 168.02081 55.207483 167.28643 49.866509 167.28643 37.516056 C 167.28643 25.165604 168.02081 19.825146 173.69534 19.825146 z M 123.12737 20.826119 L 128.3348 20.826119 C 135.34452 20.826119 135.34419 28.637083 135.34419 37.516056 C 135.34419 49.599472 134.14281 54.205994 128.00097 54.205994 L 123.12737 54.205994 L 123.12737 20.826119 z M 315.90578 20.826119 L 320.97937 20.826119 C 325.519 20.826119 326.5873 24.164401 326.5873 28.103194 C 326.5873 31.307636 324.51788 34.578768 321.51371 34.578768 L 315.90578 34.578768 L 315.90578 20.826119 z M 272.6061 31.507638 L 282.21947 31.507638 L 277.34586 52.336857 L 277.21254 52.336857 L 272.6061 31.507638 z " />
</svg>
