<?xml version="1.0" encoding="UTF-8" standalone="no"?>
<!-- Created with Inkscape (http://www.inkscape.org/) -->

<svg
   width="1807.0909"
   height="220.036"
   viewBox="0 0 478.12614 58.217856"
   version="1.1"
   id="svg1"
   sodipodi:docname="logo-guido-marron-footer.svg"
   inkscape:version="1.4.2 (f4327f4, 2025-05-13)"
   xmlns:inkscape="http://www.inkscape.org/namespaces/inkscape"
   xmlns:sodipodi="http://sodipodi.sourceforge.net/DTD/sodipodi-0.dtd"
   xmlns="http://www.w3.org/2000/svg"
   xmlns:svg="http://www.w3.org/2000/svg">
  <sodipodi:namedview
     id="namedview1"
     pagecolor="#ffffff"
     bordercolor="#999999"
     borderopacity="1"
     inkscape:showpageshadow="2"
     inkscape:pageopacity="0"
     inkscape:pagecheckerboard="0"
     inkscape:deskcolor="#d1d1d1"
     inkscape:zoom="0.80571486"
     inkscape:cx="233.33317"
     inkscape:cy="138.38643"
     inkscape:window-width="1600"
     inkscape:window-height="829"
     inkscape:window-x="-8"
     inkscape:window-y="-8"
     inkscape:window-maximized="1"
     inkscape:current-layer="g1" />
  <defs
     id="defs1" />
  <g
     id="g1">
    <path
       id="path16-1"
       style="font-size:34.9754px;line-height:1.25;font-family:'Univers 67 Condensed';-inkscape-font-specification:'Univers 67 Condensed, ';text-align:center;letter-spacing:2.04477px;word-spacing:0px;text-anchor:middle;fill:#452517;fill-opacity:1;stroke:#452517;stroke-width:0.983245;stroke-opacity:1"
       d="M 48.131428 0.49144286 L 48.131428 7.1597696 L 54.984757 7.1597696 L 54.984757 0.49144286 L 48.131428 0.49144286 z M 59.059443 0.49144286 L 59.059443 7.1597696 L 65.913288 7.1597696 L 65.913288 0.49144286 L 59.059443 0.49144286 z M 16.297713 11.666988 C 1.0473499 11.666988 0.49144286 23.089065 0.49144286 34.32607 C 0.49144286 51.243328 2.2817719 57.726191 17.964278 57.726191 C 21.668745 57.726191 28.028462 56.738556 30.559891 56.244628 L 30.559891 33.647041 L 16.17369 33.647041 L 16.17369 40.50037 L 21.236946 40.50037 L 21.236946 50.378836 C 19.816945 50.872765 18.149793 51.243383 16.606221 51.243383 C 11.296574 51.243383 9.9378945 48.773745 9.9378945 34.820096 C 9.9378945 26.176234 9.9379213 18.334798 15.741675 18.334798 C 20.680963 18.334798 21.360049 21.97747 21.298441 26.114168 L 30.559891 26.114168 C 31.115605 16.791164 25.435397 11.666988 16.297713 11.666988 z M 160.64084 11.666988 C 145.26708 11.666988 145.2671 22.903906 145.2671 34.69659 C 145.2671 46.365792 145.26708 57.726191 160.64084 57.726191 C 176.0146 57.726191 176.01458 46.365792 176.01458 34.69659 C 176.01458 22.903906 176.0146 11.666988 160.64084 11.666988 z M 207.4323 11.666988 C 192.05854 11.666988 192.05856 22.903906 192.05856 34.69659 C 192.05856 46.365792 192.05854 57.726191 207.4323 57.726191 C 216.13784 57.726191 220.89194 53.898099 220.89194 41.981933 L 211.6925 41.981933 C 211.56893 45.50122 211.75428 51.058381 207.4323 51.058381 C 202.18426 51.058381 201.50501 46.118827 201.50501 34.69659 C 201.50501 23.27437 202.18426 18.334798 207.4323 18.334798 C 210.21069 18.334798 211.26049 20.557471 211.26049 26.484688 L 220.39791 26.484688 C 220.76827 16.914701 216.94052 11.666988 207.4323 11.666988 z M 309.40333 12.037508 L 309.40333 43.649015 C 309.40333 52.045893 314.34244 57.355671 324.59155 57.355671 C 335.95209 57.355671 339.71828 50.317124 339.71828 43.649015 L 339.71828 12.037508 L 330.39533 12.037508 L 330.39533 43.031481 C 330.39533 47.970822 328.54357 50.687861 324.46856 50.687861 C 321.07267 50.687861 318.72628 48.526501 318.72628 43.031481 L 318.72628 12.037508 L 309.40333 12.037508 z M 41.833622 12.407511 L 41.833622 44.019535 C 41.833622 52.416414 46.773246 57.726191 57.022358 57.726191 C 68.382899 57.726191 72.149083 50.687645 72.149083 44.019535 L 72.149083 12.407511 L 62.826138 12.407511 L 62.826138 43.402001 C 62.826138 48.341342 60.973854 51.058381 56.898852 51.058381 C 53.502959 51.058381 51.156567 48.897021 51.156567 43.402001 L 51.156567 12.407511 L 41.833622 12.407511 z M 83.385607 12.407511 L 83.385607 56.985151 L 92.708552 56.985151 L 92.708552 12.407511 L 83.385607 12.407511 z M 103.94559 12.407511 L 103.94559 56.985151 L 119.13433 56.985151 C 135.06362 56.985151 134.01404 41.302919 134.01404 34.449576 C 134.01404 20.557677 131.72968 12.407511 119.50485 12.407511 L 103.94559 12.407511 z M 228.60051 12.407511 L 240.94911 56.985151 L 253.2357 56.985151 L 265.33729 12.407511 L 255.52032 12.407511 L 253.0507 22.286495 L 240.33158 22.286495 L 237.80047 12.407511 L 228.60051 12.407511 z M 273.04638 12.407511 L 273.04638 56.985151 L 282.36932 56.985151 L 282.36932 38.833288 L 289.28415 38.833288 C 300.21255 38.833288 301.69424 30.806989 301.69424 25.744165 C 301.69424 17.59425 298.36055 12.407511 289.84019 12.407511 L 273.04638 12.407511 z M 348.2914 12.407511 L 348.2914 19.26084 L 366.13475 19.26084 L 347.42737 48.835261 L 347.42737 56.985151 L 375.5812 56.985151 L 375.5812 50.131823 L 356.37979 50.131823 L 375.14919 20.495906 L 375.14919 12.407511 L 348.2914 12.407511 z M 384.15484 12.407511 L 384.15484 19.26084 L 401.9982 19.26084 L 383.29029 48.835261 L 383.29029 56.985151 L 411.44465 56.985151 L 411.44465 50.131823 L 392.24272 50.131823 L 411.01212 20.495906 L 411.01212 12.407511 L 384.15484 12.407511 z M 419.15322 12.407511 L 419.15322 56.985151 L 428.47617 56.985151 L 428.47617 12.407511 L 419.15322 12.407511 z M 457.44339 14.339176 C 446.14596 14.339176 437.08598 23.344374 437.08598 34.641813 C 437.08598 45.939252 446.14596 55.054003 457.44339 55.054003 C 468.68626 55.054003 477.69125 45.939252 477.69125 34.641813 C 477.69125 23.344374 468.68626 14.339176 457.44339 14.339176 z M 457.44339 18.159615 C 466.4486 18.159615 473.87133 25.527454 473.87133 34.641813 C 473.87133 43.756172 466.4486 51.233564 457.44339 51.233564 C 448.27446 51.233564 440.90641 43.756172 440.90641 34.641813 C 440.90641 25.527454 448.27446 18.159615 457.44339 18.159615 z M 160.64084 18.334798 C 165.88888 18.334798 166.56761 23.27437 166.56761 34.69659 C 166.56761 46.118827 165.88888 51.058381 160.64084 51.058381 C 155.3928 51.058381 154.71355 46.118827 154.71355 34.69659 C 154.71355 23.27437 155.3928 18.334798 160.64084 18.334798 z M 113.26854 19.26084 L 118.08478 19.26084 C 124.56764 19.26084 124.56759 26.484943 124.56759 34.69659 C 124.56759 45.871863 123.45595 50.131823 117.77576 50.131823 L 113.26854 50.131823 L 113.26854 19.26084 z M 282.36932 19.26084 L 287.06154 19.26084 C 291.25993 19.26084 292.24779 22.348409 292.24779 25.991178 C 292.24779 28.954787 290.33396 31.97996 287.55557 31.97996 L 282.36932 31.97996 L 282.36932 19.26084 z M 449.52966 22.744348 L 449.52966 46.37598 L 454.87817 46.37598 L 454.87817 36.606551 L 456.24295 36.606551 C 460.3908 36.606551 459.95383 39.008337 459.95383 41.791764 C 459.95383 43.374497 459.95385 44.956978 460.66335 46.37598 L 465.90282 46.37598 C 465.41163 45.393594 465.30234 40.972776 465.30234 39.44462 C 465.30234 35.187614 461.80946 34.914981 460.66335 34.860404 L 460.66335 34.751367 C 464.15628 34.205597 465.41189 31.967925 465.41189 28.96619 C 465.41189 24.927492 463.06479 22.744348 459.40813 22.744348 L 449.52966 22.744348 z M 454.87817 26.673824 L 457.27957 26.673824 C 458.97146 26.673824 460.06338 27.547088 460.06338 29.784745 C 460.06338 31.312901 459.40808 33.277555 457.27957 33.277555 L 454.87817 33.277555 L 454.87817 26.673824 z M 242.18366 29.139823 L 251.07459 29.139823 L 246.56737 48.403246 L 246.44387 48.403246 L 242.18366 29.139823 z " />
    <text
       xml:space="preserve"
       style="font-size:54.577px;line-height:1.25;font-family:Callheart;-inkscape-font-specification:Callheart;text-align:center;letter-spacing:3.19074px;word-spacing:0px;text-anchor:middle;fill:#452517;fill-opacity:1;stroke:#452517;stroke-width:0.869144;stroke-dasharray:none;stroke-opacity:1"
       x="273.42532"
       y="181.79338"
       id="text33036-9-0-2-3-1-9-4-9-7-12-5-0-4-8-6-8-1-2-7-8-5"><tspan
         sodipodi:role="line"
         id="tspan33034-2-5-2-2-88-72-3-0-6-2-7-8-11-9-1-4-9-3-7-9-1"
         style="font-style:normal;font-variant:normal;font-weight:normal;font-stretch:normal;font-family:'Univers 67 Condensed';-inkscape-font-specification:'Univers 67 Condensed, ';fill:#452517;fill-opacity:1;stroke:#452517;stroke-width:0.869144;stroke-dasharray:none;stroke-opacity:1"
         x="273.42532"
         y="181.79338" /></text>
  </g>
</svg>
