<?xml version="1.0" encoding="UTF-8" standalone="no"?>
<!-- Created with Inkscape (http://www.inkscape.org/) -->

<svg
   width="1807.0909"
   height="238.65401"
   viewBox="0 0 478.12614 63.143871"
   version="1.1"
   id="svg1"
   xmlns="http://www.w3.org/2000/svg"
   xmlns:svg="http://www.w3.org/2000/svg">
  <defs
     id="defs1" />
  <g
     id="layer1">
    <g
       id="g10890-8-3-2-5-55-3-5-6"
       transform="matrix(1.9146593,0,0,1.9146593,-2454.2364,-1082.9194)"
       style="fill:#fafafa;fill-opacity:1;stroke:#fafafa;stroke-opacity:1">
      <path
         style="font-size:34.9754px;line-height:1.25;font-family:'Univers 67 Condensed';-inkscape-font-specification:'Univers 67 Condensed, ';text-align:center;letter-spacing:2.04477px;word-spacing:0px;text-anchor:middle;stroke-width:0.556987"
         d="m 1299.1252,580.38706 c 0.3148,-5.28129 -2.903,-8.18425 -8.0793,-8.18425 -8.6389,0 -8.9537,6.47045 -8.9537,12.83597 0,9.58326 1.0143,13.25568 9.898,13.25568 2.0985,0 5.701,-0.55961 7.135,-0.83941 v -12.80099 h -8.1493 v 3.88226 h 2.868 v 5.59607 c -0.8044,0.2798 -1.7488,0.48965 -2.6231,0.48965 -3.0079,0 -3.7774,-1.39901 -3.7774,-9.30345 0,-4.89656 0,-9.33843 3.2877,-9.33843 2.798,0 3.1828,2.06354 3.1478,4.4069 z m 18.4132,-7.76454 v 17.55765 c 0,2.79803 -1.0492,4.33695 -3.3576,4.33695 -1.9236,0 -3.2527,-1.22414 -3.2527,-4.33695 v -17.55765 h -5.2813 v 17.9074 c 0,4.75666 2.798,7.76454 8.604,7.76454 6.4354,0 8.5689,-3.98719 8.5689,-7.76454 v -17.9074 z m -2.1335,-6.75025 v 3.77734 h 3.8823 v -3.77734 z m -6.1906,0 v 3.77734 h 3.8823 v -3.77734 z m 25.2335,32.00249 v -25.25224 h -5.2813 v 25.25224 z m 11.8728,-21.36997 h 2.7281 c 3.6724,0 3.6724,4.09212 3.6724,8.74385 0,6.33054 -0.6295,8.74385 -3.8473,8.74385 h -2.5532 z m -5.2813,21.36997 h 8.604 c 9.0236,0 8.4291,-8.88376 8.4291,-12.76602 0,-7.86947 -1.2941,-12.48622 -8.2193,-12.48622 h -8.8138 z m 31.7739,-3.35764 c -2.9729,0 -3.3576,-2.79803 -3.3576,-9.26848 0,-6.47045 0.3847,-9.26848 3.3576,-9.26848 2.9729,0 3.3576,2.79803 3.3576,9.26848 0,6.47045 -0.3847,9.26848 -3.3576,9.26848 z m 0,3.77734 c 8.7089,0 8.7089,-6.43547 8.7089,-13.04582 0,-6.6803 0,-13.04583 -8.7089,-13.04583 -8.7089,0 -8.7089,6.36553 -8.7089,13.04583 0,6.61035 0,13.04582 8.7089,13.04582 z m 33.224,0 c 4.9316,0 7.6247,-2.16847 7.6247,-8.91873 h -5.2114 c -0.07,1.9936 0.035,5.14139 -2.4133,5.14139 -2.9729,0 -3.3576,-2.79803 -3.3576,-9.26848 0,-6.47045 0.3847,-9.26848 3.3576,-9.26848 1.5739,0 2.1685,1.25911 2.1685,4.61675 h 5.1764 c 0.2098,-5.42119 -1.9586,-8.3941 -7.3449,-8.3941 -8.7088,0 -8.7088,6.36553 -8.7088,13.04583 0,6.61035 0,13.04582 8.7088,13.04582 z m 41.2808,-21.78967 h 2.6581 c 2.3783,0 2.9379,1.74877 2.9379,3.81232 0,1.67881 -1.0842,3.39261 -2.6581,3.39261 h -2.9379 z m -5.2813,21.36997 h 5.2813 v -10.28277 h 3.9172 c 6.1907,0 7.0301,-4.5468 7.0301,-7.41479 0,-4.61675 -1.8887,-7.55468 -6.7153,-7.55468 h -9.5133 z m 33.2428,-25.25224 v 17.55765 c 0,2.79803 -1.0493,4.33695 -3.3576,4.33695 -1.9237,0 -3.2527,-1.22414 -3.2527,-4.33695 v -17.55765 h -5.2813 v 17.9074 c 0,4.75666 2.798,7.76454 8.6039,7.76454 6.4355,0 8.569,-3.98719 8.569,-7.76454 v -17.9074 z m 10.6837,3.88227 h 10.1079 l -10.5975,16.75321 v 4.61676 h 15.9487 v -3.88227 h -10.8773 l 10.6325,-16.78819 v -4.58178 h -15.2143 z m 19.5325,0 h 10.1079 L 1505.006,593.258 v 4.61676 h 15.9488 v -3.88227 h -10.8773 L 1520.71,577.2043 v -4.58178 h -15.2143 z m 25.7581,21.36997 v -25.25224 h -5.2813 v 25.25224 z"
         id="text33036-9-0-2-3-1-9-4-9-7-12-5-0-4-5-4"
         aria-label="GÜIDO C  PUZZI" />
      <path
         style="font-size:34.9754px;line-height:1.25;font-family:'Univers 67 Condensed';-inkscape-font-specification:'Univers 67 Condensed, ';text-align:center;letter-spacing:2.04477px;word-spacing:0px;text-anchor:middle;stroke-width:0.556987"
         d="m 1422.1498,-573.04224 1.434,-5.59606 h 7.2049 l 1.399,5.59606 h 5.5611 l -6.8552,-25.25223 h -6.9601 l -6.9951,25.25223 z m 7.5197,-9.47833 h -5.0365 l 2.4133,-10.91232 h 0.07 z"
         id="text33036-9-0-2-3-1-9-0-2-3-5-6-0-87-11-1"
         transform="scale(1,-1)"
         aria-label="A" />
    </g>
  </g>
</svg>
