<?xml version="1.0" encoding="UTF-8" standalone="no"?>
<!-- Created with Inkscape (http://www.inkscape.org/) -->

<svg
   width="1807.0909"
   height="238.65401"
   viewBox="0 0 478.12614 63.143871"
   version="1.1"
   id="svg1"
   sodipodi:docname="logo-guido-blanco.svg"
   inkscape:version="1.4.2 (f4327f4, 2025-05-13)"
   xmlns:inkscape="http://www.inkscape.org/namespaces/inkscape"
   xmlns:sodipodi="http://sodipodi.sourceforge.net/DTD/sodipodi-0.dtd"
   xmlns="http://www.w3.org/2000/svg"
   xmlns:svg="http://www.w3.org/2000/svg">
  <sodipodi:namedview
     id="namedview1"
     pagecolor="#ffffff"
     bordercolor="#999999"
     borderopacity="1"
     inkscape:showpageshadow="2"
     inkscape:pageopacity="0"
     inkscape:pagecheckerboard="0"
     inkscape:deskcolor="#d1d1d1"
     inkscape:zoom="0.57833494"
     inkscape:cx="1059.9394"
     inkscape:cy="-23.342875"
     inkscape:window-width="1600"
     inkscape:window-height="829"
     inkscape:window-x="-8"
     inkscape:window-y="-8"
     inkscape:window-maximized="1"
     inkscape:current-layer="svg1" />
  <defs
     id="defs1" />
  <path
     id="path12"
     style="font-size:34.9754px;line-height:1.25;font-family:'Univers 67 Condensed';-inkscape-font-specification:'Univers 67 Condensed, ';text-align:center;letter-spacing:2.04477px;word-spacing:0px;text-anchor:middle;fill:#fafafa;fill-opacity:1;stroke:#fafafa;stroke-width:1.06644;stroke-opacity:1"
     d="M 52.462947 0.53330077 L 52.462947 7.7654173 L 59.896084 7.7654173 L 59.896084 0.53330077 L 52.462947 0.53330077 z M 64.31597 0.53330077 L 64.31597 7.7654173 L 71.749108 7.7654173 L 71.749108 0.53330077 L 64.31597 0.53330077 z M 17.67644 12.654008 C 1.13589 12.654008 0.53330077 25.042483 0.53330077 37.230285 C 0.53330077 55.578963 2.4753395 62.610647 19.484598 62.610647 C 23.50251 62.610647 30.400159 61.539231 33.14578 61.00351 L 33.14578 36.493896 L 17.542598 36.493896 L 17.542598 43.927034 L 23.033736 43.927034 L 23.033736 54.641625 C 21.493584 55.177347 19.68529 55.579035 18.011303 55.579035 C 12.252199 55.579035 10.779187 52.900479 10.779187 37.76617 C 10.779187 28.390926 10.779068 19.886124 17.073893 19.886124 C 22.43111 19.886124 23.167928 23.837116 23.100915 28.323852 L 33.14578 28.323852 C 33.748515 18.211981 27.587291 12.654008 17.67644 12.654008 z M 174.23329 12.654008 C 157.55871 12.654008 157.55834 24.84183 157.55834 37.632328 C 157.55834 50.288896 157.55871 62.610647 174.23329 62.610647 C 190.90787 62.610647 190.90772 50.288896 190.90772 37.632328 C 190.90772 24.84183 190.90787 12.654008 174.23329 12.654008 z M 237.84594 12.654008 C 221.17156 12.654008 221.17151 24.84183 221.17151 37.632328 C 221.17151 50.288896 221.17156 62.610647 237.84594 62.610647 C 247.28827 62.610647 252.44453 58.458619 252.44453 45.534171 L 242.46633 45.534171 C 242.3323 49.351235 242.53359 55.378531 237.84594 55.378531 C 232.15385 55.378531 231.41739 50.021036 231.41739 37.632328 C 231.41739 25.243621 232.15385 19.886124 237.84594 19.886124 C 240.85942 19.886124 241.99763 22.297159 241.99763 28.725895 L 251.90865 28.725895 C 252.31035 18.346163 248.15887 12.654008 237.84594 12.654008 z M 45.632356 13.457576 L 45.632356 47.744372 C 45.632356 56.851756 50.989773 62.610647 62.106285 62.610647 C 74.427883 62.610647 78.512519 54.976711 78.512519 47.744372 L 78.512519 13.457576 L 68.400992 13.457576 L 68.400992 47.074645 C 68.400992 52.431919 66.391726 55.378531 61.971927 55.378531 C 58.288888 55.378531 55.7444 53.034616 55.7444 47.074645 L 55.7444 13.457576 L 45.632356 13.457576 z M 90.664748 13.457576 L 90.664748 61.807079 L 100.77628 61.807079 L 100.77628 13.457576 L 90.664748 13.457576 z M 113.39721 13.457576 L 113.39721 61.807079 L 129.87062 61.807079 C 147.14774 61.807079 146.00969 44.797849 146.00969 37.364644 C 146.00969 22.29729 143.53155 13.457576 130.27215 13.457576 L 113.39721 13.457576 z M 306.77248 13.457576 L 306.77248 61.807079 L 316.88453 61.807079 L 316.88453 42.118875 L 324.38433 42.118875 C 336.23741 42.118875 337.84501 33.413549 337.84501 27.922326 C 337.84501 19.082822 334.22868 13.457576 324.98739 13.457576 L 306.77248 13.457576 z M 347.65267 13.457576 L 347.65267 47.744372 C 347.65267 56.851756 353.01028 62.610647 364.1266 62.610647 C 376.44839 62.610647 380.53335 54.976711 380.53335 47.744372 L 380.53335 13.457576 L 370.42131 13.457576 L 370.42131 47.074645 C 370.42131 52.431919 368.41237 55.378531 363.99276 55.378531 C 360.30953 55.378531 357.76472 53.034616 357.76472 47.074645 L 357.76472 13.457576 L 347.65267 13.457576 z M 390.87691 13.457576 L 390.87691 20.890714 L 410.23025 20.890714 L 389.9395 52.967309 L 389.9395 61.807079 L 420.47562 61.807079 L 420.47562 54.373941 L 399.6495 54.373941 L 420.00691 22.230167 L 420.00691 13.457576 L 390.87691 13.457576 z M 428.27514 13.457576 L 428.27514 20.890714 L 447.62797 20.890714 L 427.33722 52.967309 L 427.33722 61.807079 L 457.87385 61.807079 L 457.87385 54.373941 L 437.04773 54.373941 L 457.40515 22.230167 L 457.40515 13.457576 L 428.27514 13.457576 z M 467.48102 13.457576 L 467.48102 61.807079 L 477.59306 61.807079 L 477.59306 13.457576 L 467.48102 13.457576 z M 258.71805 14.261145 L 272.11103 62.610647 L 285.43735 62.610647 L 298.56265 14.261145 L 287.91524 14.261145 L 285.23633 24.975736 L 271.44131 24.975736 L 268.69574 14.261145 L 258.71805 14.261145 z M 174.23329 19.886124 C 179.92538 19.886124 180.66184 25.243621 180.66184 37.632328 C 180.66184 50.021036 179.92538 55.378531 174.23329 55.378531 C 168.5412 55.378531 167.80474 50.021036 167.80474 37.632328 C 167.80474 25.243621 168.5412 19.886124 174.23329 19.886124 z M 123.50874 20.890714 L 128.73219 20.890714 C 135.76358 20.890714 135.7638 28.72585 135.7638 37.632328 C 135.7638 49.753156 134.55832 54.373941 128.39733 54.373941 L 123.50874 54.373941 L 123.50874 20.890714 z M 316.88453 20.890714 L 321.97362 20.890714 C 326.52726 20.890714 327.59912 24.239014 327.59912 28.19001 C 327.59912 31.404359 325.52299 34.685737 322.50951 34.685737 L 316.88453 34.685737 L 316.88453 20.890714 z M 273.45049 32.408874 L 283.09383 32.408874 L 278.20524 53.302172 L 278.07088 53.302172 L 273.45049 32.408874 z " />
</svg>
