<?xml version="1.0" encoding="UTF-8" standalone="no"?>
<!-- Created with Inkscape (http://www.inkscape.org/) -->

<svg
   width="32.000023"
   height="31.999981"
   viewBox="0 0 8.4666726 8.4666616"
   version="1.1"
   id="svg1"
   xml:space="preserve"
   xmlns="http://www.w3.org/2000/svg"
   xmlns:svg="http://www.w3.org/2000/svg"><defs
     id="defs1" /><g
     id="layer1"><path
       style="fill:#1a1a1a;fill-opacity:1;stroke-width:0.0963793"
       d="m 0.09882803,8.3676673 c -0.08796,-0.08797 -0.0989800038,-0.112843 -0.098830003838,-0.223141 9.6e-5,-0.07532 0.017650003838,-0.150336 0.044620003838,-0.19076 0.02445,-0.03664 0.860112,-0.889666 1.85702597,-1.895605 L 3.714216,4.2291783 1.901644,2.4046183 C 0.90473003,1.4011103 0.06906803,0.54996033 0.04461803,0.51317433 0.01767803,0.47264433 9.8026162e-5,0.39737533 -1.9738383e-6,0.32215633 -9.7973838e-5,0.21185833 0.01086803,0.18698433 0.09882803,0.09901233 c 0.08817,-0.08818 0.112716,-0.099009996667 0.224465,-0.099009996667 0.09949,0 0.146308,0.015669996667 0.226113,0.075669996667 0.05535,0.04162 0.90958897,0.885278 1.89829897,1.87479897 l 1.797656,1.799128 1.848654,-1.851265 C 7.110775,0.88013833 7.959881,0.03665533 7.980917,0.02392633 8.001957,0.01119633 8.075017,6.0633333e-4 8.143283,3.9633333e-4 8.253703,1.1333333e-5 8.278328,0.01093633 8.366396,0.09901633 c 0.08796,0.08797 0.09898,0.112846 0.09883,0.223144 -9.7e-5,0.07514 -0.01772,0.150614 -0.04462,0.191224 -0.02445,0.0369 -0.862564,0.89004697 -1.862474,1.89588497 l -1.818019,1.828796 1.784297,1.789157 c 0.981364,0.984036 1.819553,1.833769 1.862642,1.888296 0.131975,0.167004 0.09477,0.425286 -0.07381,0.512478 -0.09827,0.05082 -0.279387,0.04931 -0.358517,-0.003 -0.03468,-0.02292 -0.889342,-0.866506 -1.899259,-1.874643 L 4.219253,4.7173803 2.409157,6.5304413 c -0.995554,0.997184 -1.84253197,1.840773 -1.88217497,1.874643 -0.05551,0.04743 -0.101617,0.06158 -0.200615,0.06158 -0.115312,0 -0.138722,-0.01019 -0.227531,-0.09901 z"
       id="path1" /></g></svg>
