<?xml version="1.0" encoding="UTF-8" standalone="no"?>
<!-- Created with Inkscape (http://www.inkscape.org/) -->

<svg
   width="32"
   height="32"
   viewBox="0 0 8.4666666 8.4666665"
   version="1.1"
   id="svg1"
   sodipodi:docname="insta-footer-negro.svg"
   inkscape:version="1.4.2 (f4327f4, 2025-05-13)"
   xmlns:inkscape="http://www.inkscape.org/namespaces/inkscape"
   xmlns:sodipodi="http://sodipodi.sourceforge.net/DTD/sodipodi-0.dtd"
   xmlns="http://www.w3.org/2000/svg"
   xmlns:svg="http://www.w3.org/2000/svg">
  <sodipodi:namedview
     id="namedview1"
     pagecolor="#ffffff"
     bordercolor="#999999"
     borderopacity="1"
     inkscape:showpageshadow="2"
     inkscape:pageopacity="0"
     inkscape:pagecheckerboard="0"
     inkscape:deskcolor="#d1d1d1"
     inkscape:zoom="3.2228594"
     inkscape:cx="-34.131182"
     inkscape:cy="24.667536"
     inkscape:window-width="1600"
     inkscape:window-height="829"
     inkscape:window-x="-8"
     inkscape:window-y="-8"
     inkscape:window-maximized="1"
     inkscape:current-layer="svg1" />
  <defs
     id="defs1" />
  <circle
     style="fill:#b01c1c;fill-opacity:1;stroke:#fafafa;stroke-width:0.305065;stroke-dasharray:none;stroke-opacity:1"
     id="path77"
     cx="4.2333336"
     cy="4.2333331"
     r="4.0808005" />
  <path
     id="rect77-8"
     style="fill:#fafafa;fill-opacity:1;stroke:none;stroke-width:0.349533;stroke-dasharray:none;stroke-opacity:1"
     d="M 3.3028798,1.914984 C 2.8165822,1.9432233 2.5468191,2.0452534 2.2957165,2.2963561 2.0380771,2.554003 1.9432961,2.8128042 1.9136886,3.3356277 c -0.018032,0.3177293 -0.0085,1.8901742 0.012427,2.0405373 0.032956,0.2364098 0.117167,0.4785196 0.2162416,0.6225145 0.232588,0.3380472 0.5639094,0.5151962 1.0405826,0.5563315 0.1908098,0.016484 2.0812209,0.00714 2.2017356,-0.010487 V 6.5438689 C 5.7269994,6.4928049 5.978381,6.3774049 6.1775624,6.1782235 6.3834593,5.972319 6.4954388,5.7224324 6.5438627,5.3637124 c 0.024841,-0.1839091 0.024841,-2.07287 0,-2.2567791 C 6.5093073,2.8506657 6.4322206,2.6258078 6.3243686,2.4673838 6.2642508,2.3790393 6.1152965,2.2274312 6.0262166,2.1639898 5.8049776,2.0064395 5.5704914,1.9386127 5.165181,1.914984 c -0.2727417,-0.015863 -1.588422,-0.015895 -1.8623012,0 z m -0.066179,0.421344 c 0.2081249,-0.016941 1.7878546,-0.016941 1.9959782,0 0.3127028,0.025374 0.4890074,0.094647 0.6467594,0.2535928 0.1099265,0.1107761 0.1622674,0.2012906 0.2083785,0.3604032 0.054386,0.1877538 0.062603,0.3544465 0.062907,1.2850011 3.563e-4,1.0847218 -0.00926,1.2003233 -0.1199187,1.4389915 C 5.9909638,5.7601503 5.9619637,5.8001329 5.8807469,5.8813847 5.7259368,6.0361961 5.5525575,6.1072492 5.2608535,6.1349775 5.1079226,6.1495219 3.388995,6.1487307 3.2104865,6.1336714 2.931208,6.1106184 2.7424068,6.0338613 2.589282,5.8807339 2.4286072,5.7200503 2.3591731,5.5412462 2.3350346,5.2248001 2.3183218,5.0059058 2.3189178,3.443538 2.3356902,3.2373406 2.3609115,2.9265183 2.4302354,2.7489758 2.589282,2.5899254 2.7483337,2.4308749 2.9258772,2.361578 3.2366982,2.3363326 Z m 2.2476045,0.3780957 c -0.169016,0 -0.2977539,0.1450316 -0.275217,0.3099467 0.024524,0.1796776 0.2221672,0.2921397 0.3833378,0.2182078 0.1074411,-0.049276 0.1644751,-0.1363778 0.1644751,-0.2503164 0,-0.1611947 -0.114352,-0.2778381 -0.2725959,-0.2778381 z M 4.2418974,3.0407525 C 4.120064,3.0402823 3.9953787,3.0578976 3.8716648,3.0964512 3.5067098,3.2101818 3.2121806,3.5051409 3.0964706,3.872301 2.9831711,4.2317945 3.0437454,4.6294425 3.2576691,4.9279546 c 0.06429,0.089663 0.2168046,0.240129 0.3014286,0.2974964 0.1293187,0.08766 0.3040129,0.1604008 0.4567282,0.1893755 0.1349589,0.025602 0.3836535,0.016854 0.5183258,-0.018347 0.4146102,-0.1081385 0.748753,-0.4416665 0.863001,-0.8616912 0.039766,-0.1461227 0.039525,-0.4522691 0,-0.5963034 C 5.2476545,3.3930931 4.7698565,3.0427894 4.2418936,3.0407525 Z m 0.039969,0.4174123 c 0.048553,0.00174 0.095166,0.00805 0.1382634,0.019003 0.278079,0.070719 0.5020315,0.2946332 0.5727134,0.5727134 0.0246,0.09679 0.024803,0.2704567 0,0.3754747 C 4.943478,4.634656 4.7765657,4.8395488 4.5787069,4.9338518 4.5191343,4.9622432 4.440252,4.9917201 4.403092,4.9993791 4.3101192,5.0184884 4.127813,5.0150546 4.0433436,4.9928233 3.7691246,4.9207985 3.5464908,4.696029 3.4765279,4.4207651 3.4326664,4.2483761 3.4649888,4.015816 3.5551592,3.8539492 3.6150361,3.7463179 3.745671,3.6157188 3.8533112,3.5557975 3.9747135,3.4882071 4.1362213,3.4529416 4.2818635,3.4581608 Z" />
</svg>
