<?xml version="1.0" encoding="UTF-8" standalone="no"?>
<!-- Created with Inkscape (http://www.inkscape.org/) -->

<svg
   width="31.999998"
   height="31.999998"
   viewBox="0 0 8.466666 8.4666661"
   version="1.1"
   id="svg1"
   xmlns="http://www.w3.org/2000/svg"
   xmlns:svg="http://www.w3.org/2000/svg">
  <defs
     id="defs1" />
  <g
     id="layer1">
    <path
       style="fill:#fafafa;fill-opacity:1;stroke-width:0.0683804"
       d="M 6.5802341,7.6262434 5.7418672,6.7859121 5.6495912,6.8443988 C 5.2916094,7.0710274 4.8519948,7.2465183 4.4277393,7.3321662 3.921739,7.434319 3.3512271,7.4253572 2.8463675,7.3072609 2.3688445,7.1955644 1.8656247,6.9596167 1.4692968,6.6615792 1.2933715,6.5292746 0.9688372,6.2170593 0.82826396,6.0448653 0.45788697,5.5911896 0.1902663,5.0195606 0.06264843,4.4095732 0.00439033,4.1308475 -0.01852587,3.5645465 0.01671413,3.2744705 0.1173418,2.4479902 0.47008858,1.7024625 1.0381154,1.1157064 1.5704638,0.56579802 2.2120568,0.21589811 2.9908925,0.05069595 3.2104909,0.00415155 3.255366,7.8315162e-4 3.6776558,6.8651623e-5 4.1700286,-9.5234838e-4 4.2501233,0.00823465 4.635513,0.10813138 c 0.6248081,0.16193588 1.1654475,0.4672307 1.6332642,0.92231492 0.5683731,0.5529196 0.9097331,1.1891699 1.0695355,1.9935416 0.055101,0.2773579 0.068749,0.834401 0.027907,1.1445953 -0.066406,0.5059565 -0.2606236,1.0528129 -0.5228361,1.4725907 l -0.06223,0.099621 0.8427566,0.8467211 0.8427566,0.846721 -0.514851,0.5162044 C 7.6686427,8.2343629 7.4327991,8.4666667 7.427727,8.4666667 c -0.00509,0 -0.3864998,-0.3781532 -0.8475945,-0.8403314 z M 4.1746831,6.2838955 C 4.7150883,6.1781192 5.1615573,5.9403036 5.5493404,5.5516677 5.9337523,5.1664308 6.1572415,4.7508379 6.2745725,4.203073 6.3272285,3.9575102 6.3313025,3.4666909 6.2827225,3.2237922 6.1809725,2.7141713 5.9534704,2.2621492 5.6174678,1.9022464 5.3211356,1.5848255 4.9639991,1.3521134 4.5484721,1.2056719 3.5085138,0.8391752 2.3196001,1.1895447 1.6362894,2.0639679 1.4978147,2.2411634 1.4482342,2.3197888 1.3471483,2.5224205 1.2452984,2.7265015 1.1664157,2.9533547 1.1171407,3.1835047 1.0641787,3.4306598 1.0599007,3.9206728 1.1089907,4.1643166 1.2203126,4.7220742 1.453834,5.1635013 1.84235,5.5505959 c 0.4422015,0.4405902 0.9516545,0.6862142 1.5916688,0.7674118 0.1287993,0.016331 0.5922569,-0.0051 0.7409882,-0.034092 z"
       id="path40" />
  </g>
</svg>
