<?xml version="1.0" encoding="UTF-8" standalone="no"?>
<!-- Created with Inkscape (http://www.inkscape.org/) -->

<svg
   width="32"
   height="32"
   viewBox="0 0 8.4666666 8.4666665"
   version="1.1"
   id="svg1"
   sodipodi:docname="tiktok-footer-negro.svg"
   inkscape:version="1.4.2 (f4327f4, 2025-05-13)"
   xmlns:inkscape="http://www.inkscape.org/namespaces/inkscape"
   xmlns:sodipodi="http://sodipodi.sourceforge.net/DTD/sodipodi-0.dtd"
   xmlns="http://www.w3.org/2000/svg"
   xmlns:svg="http://www.w3.org/2000/svg">
  <sodipodi:namedview
     id="namedview1"
     pagecolor="#ffffff"
     bordercolor="#999999"
     borderopacity="1"
     inkscape:showpageshadow="2"
     inkscape:pageopacity="0"
     inkscape:pagecheckerboard="0"
     inkscape:deskcolor="#d1d1d1"
     inkscape:zoom="6.4457187"
     inkscape:cx="-24.512395"
     inkscape:cy="-6.2832404"
     inkscape:window-width="1600"
     inkscape:window-height="829"
     inkscape:window-x="-8"
     inkscape:window-y="-8"
     inkscape:window-maximized="1"
     inkscape:current-layer="svg1" />
  <defs
     id="defs1" />
  <circle
     style="fill:#b01c1c;fill-opacity:1;stroke:#fafafa;stroke-width:0.305065;stroke-dasharray:none;stroke-opacity:1"
     id="path77-1-4"
     cx="4.2333331"
     cy="4.233335"
     r="4.0808015" />
  <path
     style="fill:#fafafa;fill-opacity:1;stroke-width:0.0451809"
     d="M 3.761423,6.5921835 C 3.402387,6.5489858 3.118817,6.4189208 2.8785862,6.1873768 2.5876277,5.906899 2.4325647,5.5458801 2.4317149,5.1469747 2.4312664,4.9640339 2.4553201,4.8176341 2.5072518,4.6676934 2.6885402,4.1535943 3.1166925,3.7900024 3.6469848,3.6997359 c 0.1369105,-0.023605 0.4363669,-0.018884 0.5387665,0.00944 l 0.059957,0.016524 0.00472,0.4333454 c 0,0.2383423 -1.181e-4,0.4333454 -0.00472,0.4333454 -0.00472,0 -0.040837,-0.016524 -0.080966,-0.0347 -0.091824,-0.043196 -0.1756231,-0.061136 -0.2861666,-0.0609 -0.2838533,4.957e-4 -0.5403716,0.1985203 -0.6116831,0.4725538 -0.023606,0.088048 -0.023606,0.2542522 0,0.3386175 0.055,0.2058379 0.2133915,0.3716412 0.4249655,0.4446524 0.1092928,0.037768 0.2851752,0.037768 0.3940427,1.416e-4 0.1940353,-0.067039 0.3305445,-0.1985199 0.4094805,-0.3935937 l 0.027146,-0.067511 0.00472,-1.7094224 0.00472,-1.7094461 0.3995898,-0.00236 c 0.3118257,-0.00236 0.4017617,1.416e-4 0.4092917,0.011803 0.00472,0.00944 0.00944,0.039184 0.00944,0.068927 2.597e-4,0.029507 0.011803,0.088992 0.027146,0.1321895 0.088756,0.2604841 0.3092998,0.4381846 0.5763226,0.4644336 l 0.07176,0.00708 0.00472,0.4052315 0.00472,0.4052553 -0.1286487,-0.00708 C 5.8312508,3.3535411 5.7297481,3.339378 5.6624495,3.321674 5.5654319,3.2968885 5.5118478,3.2772961 5.356242,3.2102572 5.344439,3.2055372 5.342079,3.4175114 5.342079,4.2495025 c 0,1.1425656 0,1.1424005 -0.070344,1.3495839 -0.1694857,0.5000067 -0.5843247,0.8652273 -1.103192,0.971333 -0.09324,0.018885 -0.3284909,0.032812 -0.4044761,0.023841 z"
     id="path81-2" />
</svg>
