<?xml version="1.0" encoding="UTF-8" standalone="no"?>
<!-- Created with Inkscape (http://www.inkscape.org/) -->

<svg
   width="377.03125mm"
   height="238.32104mm"
   viewBox="0 0 377.03125 238.32104"
   version="1.1"
   id="svg1"
   inkscape:version="1.4.2 (f4327f4, 2025-05-13)"
   sodipodi:docname="WEB FINAL.svg"
   xml:space="preserve"
   xmlns:inkscape="http://www.inkscape.org/namespaces/inkscape"
   xmlns:sodipodi="http://sodipodi.sourceforge.net/DTD/sodipodi-0.dtd"
   xmlns="http://www.w3.org/2000/svg"
   xmlns:svg="http://www.w3.org/2000/svg"><sodipodi:namedview
     id="namedview1"
     pagecolor="#ffffff"
     bordercolor="#999999"
     borderopacity="1"
     inkscape:showpageshadow="2"
     inkscape:pageopacity="0"
     inkscape:pagecheckerboard="0"
     inkscape:deskcolor="#d1d1d1"
     inkscape:document-units="mm"
     inkscape:zoom="0.12922865"
     inkscape:cx="866.68085"
     inkscape:cy="2650.341"
     inkscape:window-width="1600"
     inkscape:window-height="829"
     inkscape:window-x="-8"
     inkscape:window-y="-8"
     inkscape:window-maximized="1"
     inkscape:current-layer="layer1"
     showgrid="false"
     showguides="true"><inkscape:page
       x="0"
       y="0"
       width="377.03125"
       height="238.32104"
       id="page2"
       margin="0"
       bleed="0" /></sodipodi:namedview><defs
     id="defs1" /><g
     inkscape:label="Capa 1"
     inkscape:groupmode="layer"
     id="layer1"
     transform="translate(530.40515,-346.50614)"><rect
       style="fill:#fafafa;fill-opacity:1;stroke-width:0.241283;stroke-linecap:round"
       id="rect3-77"
       width="377.03125"
       height="238.125"
       x="-530.40515"
       y="346.5061"
       inkscape:export-filename="shop_nuevo_desktop.svg"
       inkscape:export-xdpi="96"
       inkscape:export-ydpi="96" /><path
       id="path29"
       style="font-size:66.7592px;line-height:1.25;font-family:'Univers 67 Condensed';-inkscape-font-specification:'Univers 67 Condensed, ';text-align:center;letter-spacing:3.90295px;word-spacing:0px;text-anchor:middle;fill:#1a1a1a;stroke:#1a1a1a;stroke-width:0.255088"
       d="m -386.52354,359.71089 v 1.72999 h 1.77787 v -1.72999 z m 2.83502,0 v 1.72999 h 1.77848 v -1.72999 z m -11.15529,2.89947 c -3.95643,0 -4.10089,2.96351 -4.10089,5.87877 0,4.38892 0.46453,6.07031 4.53307,6.07031 0.96108,0 2.6111,-0.25617 3.26783,-0.38431 v -5.86219 h -3.73255 v 1.77787 h 1.31376 v 2.56306 c -0.36841,0.12814 -0.80096,0.22408 -1.20141,0.22408 -1.37754,0 -1.72999,-0.64106 -1.72999,-4.26112 0,-2.24251 2.1e-4,-4.27647 1.50591,-4.27647 1.28143,0 1.45747,0.9447 1.44146,2.0179 h 2.40282 c 0.14416,-2.4187 -1.32936,-3.7479 -3.70001,-3.7479 z m 37.44704,0 c -3.98847,0 -3.98794,2.9151 -3.98794,5.97453 0,3.02739 -5.3e-4,5.97455 3.98794,5.97455 3.98846,0 3.98855,-2.94716 3.98855,-5.97455 0,-3.05943 -9e-5,-5.97453 -3.98855,-5.97453 z m 15.21627,0 c -3.98847,0 -3.98854,2.9151 -3.98854,5.97453 0,3.02739 7e-5,5.97455 3.98854,5.97455 2.25853,0 3.4919,-0.99286 3.4919,-4.08433 h -2.38686 c -0.0321,0.91304 0.0163,2.35495 -1.10504,2.35495 -1.36152,0 -1.53783,-1.28184 -1.53783,-4.24517 0,-2.96331 0.17631,-4.24453 1.53783,-4.24453 0.72081,0 0.99269,0.57656 0.99269,2.11428 h 2.37091 c 0.0961,-2.48277 -0.89684,-3.84428 -3.3636,-3.84428 z m -45.97664,0.0964 v 8.20055 c 0,2.17844 1.28105,3.55636 3.94004,3.55636 2.9473,0 3.92471,-1.82642 3.92471,-3.55636 v -8.20055 h -2.41879 v 8.04033 c 0,1.28144 -0.48066,1.9866 -1.53784,1.9866 -0.88098,0 -1.48934,-0.561 -1.48934,-1.9866 v -8.04033 z m 72.242,0 v 8.20055 c 0,2.17844 1.28106,3.55636 3.94004,3.55636 2.9473,0 3.92471,-1.82642 3.92471,-3.55636 v -8.20055 h -2.4188 v 8.04033 c 0,1.28144 -0.48063,1.9866 -1.53783,1.9866 -0.88098,0 -1.48995,-0.561 -1.48995,-1.9866 v -8.04033 z m -61.47041,0.0958 v 11.56476 h 2.41879 v -11.56476 z m 5.43737,0 v 11.56476 h 3.94066 c 4.13263,0 3.86024,-4.06824 3.86024,-5.84623 0,-3.60403 -0.59293,-5.71853 -3.76448,-5.71853 z m 34.75997,0 3.20336,11.56476 h 3.18801 l 3.13952,-11.56476 h -2.5471 l -0.64092,2.56305 h -3.29974 l -0.65627,-2.56305 z m 11.49478,0 v 11.56476 h 2.41817 v -4.70927 h 1.79444 c 2.83518,0 3.21934,-2.08203 3.21934,-3.39551 0,-2.11436 -0.86459,-3.45998 -3.07507,-3.45998 z m 20.11708,0 v 1.77787 h 4.62885 l -4.85292,7.6726 v 2.11429 h 7.30425 v -1.77787 h -4.98185 l 4.8695,-7.68856 v -2.09833 z m 8.94522,0 v 1.77787 h 4.62947 l -4.85354,7.6726 v 2.11429 h 7.30425 v -1.77787 h -4.98185 l 4.8695,-7.68856 v -2.09833 z m 9.37803,0 v 11.56476 h 2.41879 v -11.56476 z m -70.14367,1.53784 c 1.36153,0 1.53784,1.28122 1.53784,4.24453 0,2.96333 -0.17631,4.24517 -1.53784,4.24517 -1.36153,0 -1.53722,-1.28184 -1.53722,-4.24517 0,-2.96331 0.17569,-4.24453 1.53722,-4.24453 z m -12.13262,0.24003 h 1.2493 c 1.68189,0 1.6821,1.87411 1.6821,4.0045 0,2.89925 -0.28825,4.00452 -1.76191,4.00452 h -1.16949 z m 46.25413,0 h 1.21737 c 1.08921,0 1.34568,0.8009 1.34568,1.74595 0,0.76887 -0.49656,1.5538 -1.21737,1.5538 h -1.34568 z m -10.38913,2.56306 h 2.30706 l -1.1695,4.99781 h -0.0319 z" /><rect
       style="fill:none;fill-opacity:1;stroke:#1a1a1a;stroke-width:0.234103;stroke-linecap:round;stroke-dasharray:none;stroke-opacity:1"
       id="rect3-7-9"
       width="355.63028"
       height="238.08696"
       x="-519.70465"
       y="346.62317" /><rect
       style="fill:#000000;fill-opacity:1;stroke-width:0.659671"
       id="rect5"
       width="355.63028"
       height="7.7278709"
       x="-519.70465"
       y="346.62317" /><text
       xml:space="preserve"
       style="font-style:normal;font-variant:normal;font-weight:bold;font-stretch:condensed;font-size:4.81208px;line-height:11.7849px;font-family:Univers;-inkscape-font-specification:'Univers Bold Condensed';text-align:justify;letter-spacing:0px;word-spacing:0px;writing-mode:lr-tb;direction:ltr;text-anchor:start;fill:#000000;fill-opacity:1;stroke-width:0.19703"
       x="-510.04953"
       y="365.59067"
       id="text11-6"><tspan
         sodipodi:role="line"
         id="tspan11-4"
         style="font-style:normal;font-variant:normal;font-weight:bold;font-stretch:condensed;font-family:Univers;-inkscape-font-specification:'Univers Bold Condensed';stroke-width:0.19703"
         x="-510.04953"
         y="365.59067">SHOP</tspan></text><text
       xml:space="preserve"
       style="font-style:normal;font-variant:normal;font-weight:bold;font-stretch:condensed;font-size:4.81208px;line-height:11.7849px;font-family:Univers;-inkscape-font-specification:'Univers Bold Condensed';text-align:justify;letter-spacing:0px;word-spacing:0px;writing-mode:lr-tb;direction:ltr;text-anchor:start;fill:#000000;fill-opacity:1;stroke-width:0.19703"
       x="-487.36084"
       y="365.59067"
       id="text11-6-8"><tspan
         sodipodi:role="line"
         id="tspan11-4-7"
         style="font-style:normal;font-variant:normal;font-weight:bold;font-stretch:condensed;font-family:Univers;-inkscape-font-specification:'Univers Bold Condensed';stroke-width:0.19703"
         x="-487.36084"
         y="365.59067">ARCHIVO</tspan></text><text
       xml:space="preserve"
       style="font-style:normal;font-variant:normal;font-weight:bold;font-stretch:condensed;font-size:4.81208px;line-height:11.7849px;font-family:Univers;-inkscape-font-specification:'Univers Bold Condensed';text-align:justify;letter-spacing:0px;word-spacing:0px;writing-mode:lr-tb;direction:ltr;text-anchor:start;fill:#000000;fill-opacity:1;stroke-width:0.19703"
       x="-248.0528"
       y="365.96872"
       id="text11-6-8-1"><tspan
         sodipodi:role="line"
         id="tspan11-4-7-0"
         style="font-style:normal;font-variant:normal;font-weight:bold;font-stretch:condensed;font-family:Univers;-inkscape-font-specification:'Univers Bold Condensed';stroke-width:0.19703"
         x="-248.0528"
         y="365.96872">BUSCAR |</tspan></text><text
       xml:space="preserve"
       style="font-style:normal;font-variant:normal;font-weight:bold;font-stretch:condensed;font-size:4.81208px;line-height:11.7849px;font-family:Univers;-inkscape-font-specification:'Univers Bold Condensed';text-align:justify;letter-spacing:0px;word-spacing:0px;writing-mode:lr-tb;direction:ltr;text-anchor:start;fill:#000000;fill-opacity:1;stroke-width:0.19703"
       x="-190.14636"
       y="365.81836"
       id="text11-6-8-10"><tspan
         sodipodi:role="line"
         id="tspan11-4-7-9"
         style="font-style:normal;font-variant:normal;font-weight:bold;font-stretch:condensed;font-family:Univers;-inkscape-font-specification:'Univers Bold Condensed';stroke-width:0.19703"
         x="-190.14636"
         y="365.81836">CARRITO(0)</tspan></text><text
       xml:space="preserve"
       style="font-style:normal;font-variant:normal;font-weight:bold;font-stretch:condensed;font-size:4.81208px;line-height:11.7849px;font-family:Univers;-inkscape-font-specification:'Univers Bold Condensed';text-align:justify;letter-spacing:0px;word-spacing:0px;writing-mode:lr-tb;direction:ltr;text-anchor:start;fill:#000000;fill-opacity:1;stroke-width:0.19703"
       x="-217.91998"
       y="365.71262"
       id="text11-6-8-4"><tspan
         sodipodi:role="line"
         id="tspan11-4-7-99"
         style="font-style:normal;font-variant:normal;font-weight:bold;font-stretch:condensed;font-family:Univers;-inkscape-font-specification:'Univers Bold Condensed';stroke-width:0.19703"
         x="-217.91998"
         y="365.71262">CUENTA</tspan></text><text
       xml:space="preserve"
       style="font-style:normal;font-variant:normal;font-weight:bold;font-stretch:condensed;font-size:4.23333px;line-height:10.3676px;font-family:Univers;-inkscape-font-specification:'Univers Bold Condensed';text-align:justify;letter-spacing:0px;word-spacing:0px;writing-mode:lr-tb;direction:ltr;text-anchor:start;fill:#000000;fill-opacity:1;stroke-width:0.189941"
       x="-516.42419"
       y="580.33795"
       id="text12"><tspan
         sodipodi:role="line"
         id="tspan12"
         style="font-size:4.23333px;line-height:10.3676px;stroke-width:0.189941"
         x="-516.42419"
         y="580.33795">REMERA GÜIDO OVERSIZED</tspan></text><text
       xml:space="preserve"
       style="font-style:normal;font-variant:normal;font-weight:bold;font-stretch:condensed;font-size:4.23333px;line-height:10.3676px;font-family:Univers;-inkscape-font-specification:'Univers Bold Condensed';text-align:justify;letter-spacing:0px;word-spacing:0px;writing-mode:lr-tb;direction:ltr;text-anchor:start;fill:#000000;fill-opacity:1;stroke-width:0.189941"
       x="-396.32333"
       y="579.94269"
       id="text12-7"><tspan
         sodipodi:role="line"
         id="tspan12-2"
         style="font-size:4.23333px;line-height:10.3676px;stroke-width:0.189941"
         x="-396.32333"
         y="579.94269">REMERA AFLIGIDA BAGGED</tspan></text><text
       xml:space="preserve"
       style="font-style:normal;font-variant:normal;font-weight:bold;font-stretch:condensed;font-size:4.23333px;line-height:10.3676px;font-family:Univers;-inkscape-font-specification:'Univers Bold Condensed';text-align:justify;letter-spacing:0px;word-spacing:0px;writing-mode:lr-tb;direction:ltr;text-anchor:start;fill:#000000;fill-opacity:1;stroke-width:0.189941"
       x="-299.57999"
       y="579.89929"
       id="text12-7-9"><tspan
         sodipodi:role="line"
         id="tspan12-2-0"
         style="font-size:4.23333px;line-height:10.3676px;stroke-width:0.189941"
         x="-299.57999"
         y="579.89929">$55.000</tspan></text><text
       xml:space="preserve"
       style="font-style:normal;font-variant:normal;font-weight:bold;font-stretch:condensed;font-size:4.23333px;line-height:10.3676px;font-family:Univers;-inkscape-font-specification:'Univers Bold Condensed';text-align:justify;letter-spacing:0px;word-spacing:0px;writing-mode:lr-tb;direction:ltr;text-anchor:start;fill:#000000;fill-opacity:1;stroke-width:0.189941"
       x="-418.51035"
       y="579.93384"
       id="text12-3"><tspan
         sodipodi:role="line"
         id="tspan12-3"
         style="font-size:4.23333px;line-height:10.3676px;stroke-width:0.189941"
         x="-418.51035"
         y="579.93384">$50.000</tspan></text><text
       xml:space="preserve"
       style="font-style:normal;font-variant:normal;font-weight:bold;font-stretch:condensed;font-size:4.23333px;line-height:10.3676px;font-family:Univers;-inkscape-font-specification:'Univers Bold Condensed';text-align:justify;letter-spacing:0px;word-spacing:0px;writing-mode:lr-tb;direction:ltr;text-anchor:start;fill:#000000;fill-opacity:1;stroke-width:0.189941"
       x="-276.66156"
       y="579.94269"
       id="text12-7-8"><tspan
         sodipodi:role="line"
         id="tspan12-2-6"
         style="font-size:4.23333px;line-height:10.3676px;stroke-width:0.189941"
         x="-276.66156"
         y="579.94269">REMERA BABY TEE REGISTRADA</tspan></text><text
       xml:space="preserve"
       style="font-style:normal;font-variant:normal;font-weight:bold;font-stretch:condensed;font-size:4.23333px;line-height:10.3676px;font-family:Univers;-inkscape-font-specification:'Univers Bold Condensed';text-align:justify;letter-spacing:0px;word-spacing:0px;writing-mode:lr-tb;direction:ltr;text-anchor:start;fill:#000000;fill-opacity:1;stroke-width:0.189941"
       x="-179.78497"
       y="579.89929"
       id="text12-7-9-2"><tspan
         sodipodi:role="line"
         id="tspan12-2-0-6"
         style="font-size:4.23333px;line-height:10.3676px;stroke-width:0.189941"
         x="-179.78497"
         y="579.89929">$45.000</tspan></text><rect
       style="fill:#f0f0f0;fill-opacity:1;stroke-width:0.209194"
       id="rect4-6"
       width="117.73959"
       height="168.94324"
       x="-519.82172"
       y="404.70551" /><rect
       style="fill:#f0f0f0;fill-opacity:1;stroke-width:0.209194"
       id="rect4-6-3"
       width="117.73959"
       height="168.94324"
       x="-400.75931"
       y="404.70551" /><rect
       style="fill:#f0f0f0;fill-opacity:1;stroke-width:0.209194"
       id="rect4-6-9"
       width="117.73959"
       height="168.94324"
       x="-281.69693"
       y="404.70551" /><rect
       style="fill:#1a1a1a;fill-opacity:1;stroke:#000000;stroke-width:0.05;stroke-dasharray:none;stroke-opacity:1"
       id="rect12"
       width="3.1168859"
       height="11.553956"
       x="-405.19901"
       y="404.70551" /><rect
       style="fill:#ffffff;fill-opacity:1;stroke:#000000;stroke-width:0.05;stroke-dasharray:none;stroke-opacity:1"
       id="rect12-0"
       width="3.1168859"
       height="11.553956"
       x="-405.19901"
       y="416.25946" /><rect
       style="fill:#96201d;fill-opacity:1;stroke:#000000;stroke-width:0.05;stroke-dasharray:none;stroke-opacity:1"
       id="rect12-0-8"
       width="3.1168859"
       height="11.553956"
       x="-405.19901"
       y="427.81342" /><ellipse
       style="fill:#96201d;fill-opacity:1;stroke:#000000;stroke-width:0;stroke-dasharray:none;stroke-opacity:1"
       id="path12"
       cx="-404.63773"
       cy="429.5235"
       rx="0.050052963"
       ry="0.02145127" /><rect
       style="fill:#1a1a1a;fill-opacity:1;stroke:#000000;stroke-width:0.05;stroke-dasharray:none;stroke-opacity:1"
       id="rect12-8"
       width="3.1168859"
       height="11.553956"
       x="-286.13657"
       y="404.70551" /><rect
       style="fill:#ffffff;fill-opacity:1;stroke:#000000;stroke-width:0.05;stroke-dasharray:none;stroke-opacity:1"
       id="rect12-0-6"
       width="3.1168859"
       height="11.553956"
       x="-286.13657"
       y="416.25946" /><rect
       style="fill:#061a66;fill-opacity:1;stroke:#000000;stroke-width:0.05;stroke-dasharray:none;stroke-opacity:1"
       id="rect12-0-8-1"
       width="3.1168859"
       height="11.553956"
       x="-286.13657"
       y="427.81342" /><rect
       style="fill:#1a1a1a;fill-opacity:1;stroke:#000000;stroke-width:0.05;stroke-dasharray:none;stroke-opacity:1"
       id="rect12-8-5"
       width="3.1168859"
       height="11.553956"
       x="-167.0992"
       y="404.61987" /><rect
       style="fill:#ffffff;fill-opacity:1;stroke:#000000;stroke-width:0.05;stroke-dasharray:none;stroke-opacity:1"
       id="rect12-0-6-3"
       width="3.1168859"
       height="11.553956"
       x="-167.0992"
       y="416.17383" /><text
       xml:space="preserve"
       style="font-style:normal;font-variant:normal;font-weight:bold;font-stretch:condensed;font-size:13.6148px;line-height:33.3429px;font-family:Univers;-inkscape-font-specification:'Univers Bold Condensed';text-align:justify;letter-spacing:0px;word-spacing:0px;writing-mode:lr-tb;direction:ltr;text-anchor:start;fill:#1a1a1a;fill-opacity:1;stroke:none;stroke-width:0.231285;stroke-dasharray:none;stroke-opacity:1"
       x="-510.65106"
       y="397.03339"
       id="text14-0"><tspan
         sodipodi:role="line"
         id="tspan14-8"
         style="font-size:13.6148px;line-height:33.3429px;fill:#1a1a1a;fill-opacity:1;stroke:none;stroke-width:0.231286"
         x="-510.65106"
         y="397.03339">REMERAS</tspan></text><g
       id="g29"
       transform="translate(-500.55314,9.4479305)"
       style="fill:#fafafa;fill-opacity:1"><g
         id="g4"><rect
           style="fill:#1a1a1a;stroke-width:0.0537121"
           id="rect4"
           width="17.743435"
           height="10.171222"
           x="-450.19519"
           y="387.04166"
           transform="translate(764.95463,-9.4479305)" /><text
           xml:space="preserve"
           style="font-style:normal;font-variant:normal;font-weight:bold;font-stretch:condensed;font-size:4.81208px;line-height:11.7849px;font-family:Univers;-inkscape-font-specification:'Univers Bold Condensed';text-align:justify;letter-spacing:0px;word-spacing:0px;writing-mode:lr-tb;direction:ltr;text-anchor:start;fill:#fafafa;fill-opacity:1;stroke:none;stroke-width:0.0817467;stroke-dasharray:none;stroke-opacity:1"
           x="315.65527"
           y="384.431"
           id="text14-5"><tspan
             sodipodi:role="line"
             id="tspan14-4"
             style="font-size:4.81208px;line-height:11.7849px;fill:#fafafa;fill-opacity:1;stroke:none;stroke-width:0.081747"
             x="315.65527"
             y="384.431">FILTROS</tspan></text></g></g></g></svg>
